<svg width="35" height="64" viewBox="0 0 35 64" fill="none" xmlns="http://www.w3.org/2000/svg">
    <g clip-path="url(#clip0_20_2163)">
        <path
            d="M14.0001 1H10.0001C9.4501 1 9.0001 1.45 9.0001 2C9.0001 2.55 9.4501 3 10.0001 3H14.0001C14.5501 3 15.0001 2.55 15.0001 2C15.0001 1.45 14.5501 1 14.0001 1ZM12.0001 14C12.5501 14 13.0001 13.55 13.0001 13V9C13.0001 8.45 12.5501 8 12.0001 8C11.4501 8 11.0001 8.45 11.0001 9V13C11.0001 13.55 11.4501 14 12.0001 14ZM19.0301 7.39L19.7801 6.64C20.1601 6.26 20.1701 5.63 19.7801 5.24L19.7701 5.23C19.3801 4.84 18.7601 4.85 18.3701 5.23L17.6201 5.98C16.0701 4.74 14.1201 4 12.0001 4C7.2001 4 3.1201 7.96 3.0001 12.76C2.8701 17.84 6.9401 22 12.0001 22C16.9801 22 21.0001 17.97 21.0001 13C21.0001 10.88 20.2601 8.93 19.0301 7.39ZM12.0001 20C8.1301 20 5.0001 16.87 5.0001 13C5.0001 9.13 8.1301 6 12.0001 6C15.8701 6 19.0001 9.13 19.0001 13C19.0001 16.87 15.8701 20 12.0001 20Z"
            fill="white" />
    </g>
    <path
        d="M3.152 41V34.312C3.152 34.0667 3.152 33.816 3.152 33.56C3.16267 33.2933 3.17333 33.0213 3.184 32.744C2.82133 33.0853 2.416 33.3787 1.968 33.624C1.52 33.8587 1.06133 34.024 0.592 34.12L0.304 32.264C0.538667 32.232 0.810667 32.1573 1.12 32.04C1.42933 31.9227 1.73867 31.7787 2.048 31.608C2.368 31.4373 2.656 31.2507 2.912 31.048C3.17867 30.8453 3.38133 30.6427 3.52 30.44H5.312V41H3.152ZM8.91225 38.552C9.33892 38.552 9.67492 38.6693 9.92025 38.904C10.1763 39.1387 10.3043 39.4533 10.3043 39.848C10.3043 40.2533 10.1763 40.5733 9.92025 40.808C9.67492 41.032 9.33892 41.144 8.91225 41.144C8.47492 41.144 8.13358 41.032 7.88825 40.808C7.64292 40.5733 7.52025 40.2533 7.52025 39.848C7.52025 39.4533 7.64292 39.1387 7.88825 38.904C8.13358 38.6693 8.47492 38.552 8.91225 38.552ZM12.1963 41V39.496C13.4763 38.6427 14.5003 37.8907 15.2682 37.24C16.0363 36.5787 16.5856 35.9707 16.9163 35.416C17.2576 34.8613 17.4283 34.312 17.4283 33.768C17.4283 33.2773 17.2789 32.8773 16.9803 32.568C16.6816 32.248 16.2603 32.088 15.7163 32.088C15.1189 32.088 14.6496 32.2907 14.3083 32.696C13.9776 33.1013 13.7963 33.6773 13.7643 34.424L11.8603 33.704C11.9243 32.6267 12.3136 31.7893 13.0283 31.192C13.7536 30.584 14.6923 30.28 15.8443 30.28C16.6976 30.28 17.4016 30.44 17.9563 30.76C18.5216 31.0693 18.9429 31.48 19.2203 31.992C19.5083 32.504 19.6523 33.0533 19.6523 33.64C19.6523 34.6533 19.2683 35.6027 18.5003 36.488C17.7429 37.3627 16.5643 38.2907 14.9643 39.272V39.288C15.1989 39.2773 15.5083 39.2667 15.8923 39.256C16.2869 39.2347 16.6229 39.224 16.9003 39.224H19.8123V41H12.1963Z"
        fill="white" />
    <path
        d="M2.256 52.08V55.536H6.552V52.08H7.512V60H6.552V56.436H2.256V60H1.296V52.08H2.256ZM12.3188 53.88C12.8868 53.88 13.3868 54.004 13.8188 54.252C14.2588 54.5 14.6028 54.86 14.8508 55.332C15.0988 55.796 15.2228 56.352 15.2228 57C15.2228 57.648 15.0988 58.208 14.8508 58.68C14.6028 59.144 14.2588 59.5 13.8188 59.748C13.3868 59.996 12.8868 60.12 12.3188 60.12C11.7588 60.12 11.2588 59.996 10.8188 59.748C10.3788 59.5 10.0348 59.144 9.78675 58.68C9.53875 58.208 9.41475 57.648 9.41475 57C9.41475 56.352 9.53875 55.796 9.78675 55.332C10.0348 54.86 10.3788 54.5 10.8188 54.252C11.2588 54.004 11.7588 53.88 12.3188 53.88ZM12.3188 54.708C11.7108 54.708 11.2348 54.912 10.8908 55.32C10.5468 55.728 10.3748 56.288 10.3748 57C10.3748 57.712 10.5468 58.272 10.8908 58.68C11.2348 59.088 11.7108 59.292 12.3188 59.292C12.9268 59.292 13.4028 59.088 13.7468 58.68C14.0908 58.272 14.2628 57.712 14.2628 57C14.2628 56.288 14.0908 55.728 13.7468 55.32C13.4028 54.912 12.9268 54.708 12.3188 54.708ZM19.2021 60.12C18.8181 60.12 18.4541 60.048 18.1101 59.904C17.7741 59.76 17.4981 59.528 17.2821 59.208C17.0741 58.88 16.9701 58.456 16.9701 57.936V54H17.9301V57.684C17.9301 58.292 18.0621 58.712 18.3261 58.944C18.5901 59.168 18.9621 59.28 19.4421 59.28C19.7461 59.28 20.0341 59.212 20.3061 59.076C20.5781 58.932 20.8021 58.712 20.9781 58.416C21.1541 58.12 21.2421 57.736 21.2421 57.264V54H22.2021V60H21.3621L21.3021 59.088C21.0941 59.448 20.8101 59.712 20.4501 59.88C20.0981 60.04 19.6821 60.12 19.2021 60.12ZM24.4363 60V54H25.2163L25.3483 54.984C25.6843 54.248 26.3243 53.88 27.2683 53.88C27.3723 53.88 27.4843 53.888 27.6043 53.904C27.7323 53.92 27.8403 53.952 27.9283 54L27.7603 54.876C27.6723 54.844 27.5763 54.82 27.4723 54.804C27.3683 54.788 27.2203 54.78 27.0283 54.78C26.7803 54.78 26.5283 54.852 26.2723 54.996C26.0243 55.14 25.8163 55.36 25.6483 55.656C25.4803 55.944 25.3963 56.312 25.3963 56.76V60H24.4363ZM31.2369 60.12C30.6529 60.12 30.1129 59.996 29.6169 59.748C29.1289 59.5 28.7529 59.148 28.4889 58.692L29.3049 58.104C29.4809 58.472 29.7369 58.76 30.0729 58.968C30.4169 59.176 30.8289 59.28 31.3089 59.28C31.7329 59.28 32.0649 59.2 32.3049 59.04C32.5449 58.872 32.6649 58.656 32.6649 58.392C32.6649 58.224 32.6089 58.072 32.4969 57.936C32.3929 57.792 32.1889 57.688 31.8849 57.624L30.4449 57.324C29.8609 57.204 29.4409 57.004 29.1849 56.724C28.9369 56.444 28.8129 56.096 28.8129 55.68C28.8129 55.352 28.9049 55.052 29.0889 54.78C29.2809 54.508 29.5489 54.292 29.8929 54.132C30.2449 53.964 30.6569 53.88 31.1289 53.88C31.7209 53.88 32.2209 53.996 32.6289 54.228C33.0369 54.46 33.3409 54.788 33.5409 55.212L32.7369 55.74C32.6009 55.388 32.3809 55.132 32.0769 54.972C31.7729 54.804 31.4569 54.72 31.1289 54.72C30.6969 54.72 30.3609 54.808 30.1209 54.984C29.8809 55.16 29.7609 55.38 29.7609 55.644C29.7609 55.82 29.8209 55.984 29.9409 56.136C30.0609 56.28 30.2849 56.384 30.6129 56.448L32.1129 56.76C32.6729 56.872 33.0649 57.056 33.2889 57.312C33.5129 57.568 33.6249 57.88 33.6249 58.248C33.6249 58.816 33.4049 59.272 32.9649 59.616C32.5249 59.952 31.9489 60.12 31.2369 60.12Z"
        fill="white" />
    <defs>
        <clipPath id="clip0_20_2163">
            <rect width="24" height="24" fill="white" />
        </clipPath>
    </defs>
</svg>