<svg width="37" height="64" viewBox="0 0 37 64" fill="none" xmlns="http://www.w3.org/2000/svg">
    <g clip-path="url(#clip0_20_2164)">
        <path
            d="M13.49 5.47998C14.59 5.47998 15.49 4.57998 15.49 3.47998C15.49 2.37998 14.59 1.47998 13.49 1.47998C12.39 1.47998 11.49 2.37998 11.49 3.47998C11.49 4.57998 12.39 5.47998 13.49 5.47998ZM10.32 17.48L10.89 14.98L12.99 16.98V21.98C12.99 22.53 13.44 22.98 13.99 22.98C14.54 22.98 14.99 22.53 14.99 21.98V16.34C14.99 15.79 14.77 15.27 14.37 14.89L12.89 13.48L13.49 10.48C14.56 11.72 16.11 12.61 17.85 12.89C18.45 12.98 18.99 12.5 18.99 11.89C18.99 11.4 18.63 10.99 18.14 10.91C16.62 10.66 15.36 9.75998 14.69 8.57998L13.69 6.97998C13.29 6.37998 12.69 5.97998 11.99 5.97998C11.69 5.97998 11.49 6.07998 11.19 6.07998L7.21004 7.75998C6.47004 8.07998 5.99004 8.79998 5.99004 9.60998V11.98C5.99004 12.53 6.44004 12.98 6.99004 12.98C7.54004 12.98 7.99004 12.53 7.99004 11.98V9.57998L9.79004 8.87998L8.19004 16.98L4.27004 16.18C3.73004 16.07 3.20004 16.42 3.09004 16.96V17C2.98004 17.54 3.33004 18.07 3.87004 18.18L7.98004 19C9.04004 19.21 10.08 18.54 10.32 17.48Z"
            fill="white" />
    </g>
    <path
        d="M4.576 41.16C3.648 41.16 2.864 40.968 2.224 40.584C1.59467 40.2 1.07733 39.6133 0.672 38.824L2.656 37.832C2.79467 38.3013 3.01333 38.68 3.312 38.968C3.61067 39.256 4.048 39.4 4.624 39.4C5.21067 39.4 5.66933 39.2453 6 38.936C6.34133 38.6267 6.512 38.184 6.512 37.608C6.512 37.032 6.352 36.5947 6.032 36.296C5.72267 35.9973 5.26933 35.848 4.672 35.848C3.79733 35.848 3.152 36.104 2.736 36.616L1.008 36.296L1.664 30.44H8.048V32.216H3.328L3.008 34.792L2.96 35H2.992C3.216 34.7547 3.52 34.5627 3.904 34.424C4.29867 34.2747 4.74667 34.2 5.248 34.2C5.93067 34.2 6.51733 34.3387 7.008 34.616C7.50933 34.8933 7.89333 35.2827 8.16 35.784C8.42667 36.2747 8.56 36.84 8.56 37.48C8.56 38.2907 8.37867 38.9733 8.016 39.528C7.664 40.072 7.184 40.4827 6.576 40.76C5.97867 41.0267 5.312 41.16 4.576 41.16ZM11.5685 38.552C11.9952 38.552 12.3312 38.6693 12.5765 38.904C12.8325 39.1387 12.9605 39.4533 12.9605 39.848C12.9605 40.2533 12.8325 40.5733 12.5765 40.808C12.3312 41.032 11.9952 41.144 11.5685 41.144C11.1312 41.144 10.7898 41.032 10.5445 40.808C10.2992 40.5733 10.1765 40.2533 10.1765 39.848C10.1765 39.4533 10.2992 39.1387 10.5445 38.904C10.7898 38.6693 11.1312 38.552 11.5685 38.552ZM14.8525 41V39.496C16.1325 38.6427 17.1565 37.8907 17.9245 37.24C18.6925 36.5787 19.2418 35.9707 19.5725 35.416C19.9138 34.8613 20.0845 34.312 20.0845 33.768C20.0845 33.2773 19.9352 32.8773 19.6365 32.568C19.3378 32.248 18.9165 32.088 18.3725 32.088C17.7752 32.088 17.3058 32.2907 16.9645 32.696C16.6338 33.1013 16.4525 33.6773 16.4205 34.424L14.5165 33.704C14.5805 32.6267 14.9698 31.7893 15.6845 31.192C16.4098 30.584 17.3485 30.28 18.5005 30.28C19.3538 30.28 20.0578 30.44 20.6125 30.76C21.1778 31.0693 21.5992 31.48 21.8765 31.992C22.1645 32.504 22.3085 33.0533 22.3085 33.64C22.3085 34.6533 21.9245 35.6027 21.1565 36.488C20.3992 37.3627 19.2205 38.2907 17.6205 39.272V39.288C17.8552 39.2773 18.1645 39.2667 18.5485 39.256C18.9432 39.2347 19.2792 39.224 19.5565 39.224H22.4685V41H14.8525ZM28.3536 41.16C26.999 41.16 25.9536 40.7013 25.2176 39.784C24.4923 38.856 24.1296 37.5013 24.1296 35.72C24.1296 33.9387 24.4923 32.5893 25.2176 31.672C25.9536 30.744 26.999 30.28 28.3536 30.28C29.7083 30.28 30.7483 30.744 31.4736 31.672C32.2096 32.5893 32.5776 33.9387 32.5776 35.72C32.5776 37.5013 32.2096 38.856 31.4736 39.784C30.7483 40.7013 29.7083 41.16 28.3536 41.16ZM28.3536 39.384C29.0363 39.384 29.543 39.0907 29.8736 38.504C30.2043 37.9067 30.3696 36.9787 30.3696 35.72C30.3696 34.4613 30.2043 33.5387 29.8736 32.952C29.543 32.3547 29.0363 32.056 28.3536 32.056C27.671 32.056 27.1643 32.3547 26.8336 32.952C26.503 33.5387 26.3376 34.4613 26.3376 35.72C26.3376 36.9787 26.503 37.9067 26.8336 38.504C27.1643 39.0907 27.671 39.384 28.3536 39.384Z"
        fill="white" />
    <path
        d="M3.84 51.96C4.536 51.96 5.136 52.104 5.64 52.392C6.144 52.672 6.564 53.088 6.9 53.64L6.096 54.264C5.8 53.752 5.464 53.392 5.088 53.184C4.72 52.968 4.272 52.86 3.744 52.86C3.104 52.86 2.636 52.988 2.34 53.244C2.044 53.5 1.896 53.812 1.896 54.18C1.896 54.46 1.984 54.708 2.16 54.924C2.336 55.132 2.688 55.296 3.216 55.416L4.932 55.8C5.692 55.968 6.22 56.224 6.516 56.568C6.82 56.904 6.972 57.324 6.972 57.828C6.972 58.276 6.844 58.676 6.588 59.028C6.34 59.372 5.988 59.64 5.532 59.832C5.076 60.024 4.54 60.12 3.924 60.12C3.068 60.12 2.36 59.952 1.8 59.616C1.24 59.272 0.812 58.856 0.516 58.368L1.356 57.684C1.588 58.14 1.916 58.512 2.34 58.8C2.772 59.08 3.32 59.22 3.984 59.22C4.6 59.22 5.084 59.108 5.436 58.884C5.796 58.66 5.976 58.336 5.976 57.912C5.976 57.656 5.892 57.428 5.724 57.228C5.556 57.02 5.24 56.864 4.776 56.76L2.916 56.34C2.18 56.18 1.656 55.92 1.344 55.56C1.04 55.2 0.888 54.784 0.888 54.312C0.888 53.888 1.004 53.5 1.236 53.148C1.476 52.788 1.816 52.5 2.256 52.284C2.704 52.068 3.232 51.96 3.84 51.96ZM8.74491 62.52V54H9.58491L9.64491 55.056C9.82891 54.704 10.1009 54.42 10.4609 54.204C10.8289 53.988 11.2489 53.88 11.7209 53.88C12.2089 53.88 12.6569 54.004 13.0649 54.252C13.4809 54.5 13.8129 54.856 14.0609 55.32C14.3089 55.784 14.4329 56.344 14.4329 57C14.4329 57.648 14.3049 58.208 14.0489 58.68C13.8009 59.144 13.4689 59.5 13.0529 59.748C12.6369 59.996 12.1809 60.12 11.6849 60.12C11.2369 60.12 10.8409 60.024 10.4969 59.832C10.1529 59.632 9.88891 59.376 9.70491 59.064V62.52H8.74491ZM11.5889 59.28C12.1809 59.28 12.6409 59.072 12.9689 58.656C13.3049 58.24 13.4729 57.688 13.4729 57C13.4729 56.312 13.3089 55.76 12.9809 55.344C12.6609 54.928 12.2089 54.72 11.6249 54.72C11.0489 54.72 10.5849 54.928 10.2329 55.344C9.88091 55.76 9.70491 56.312 9.70491 57C9.70491 57.688 9.87691 58.24 10.2209 58.656C10.5649 59.072 11.0209 59.28 11.5889 59.28ZM18.7763 60.12C18.2083 60.12 17.7003 59.996 17.2523 59.748C16.8123 59.5 16.4683 59.144 16.2203 58.68C15.9723 58.208 15.8483 57.648 15.8483 57C15.8483 56.352 15.9723 55.796 16.2203 55.332C16.4683 54.86 16.8083 54.5 17.2403 54.252C17.6723 54.004 18.1643 53.88 18.7163 53.88C19.2763 53.88 19.7523 54 20.1443 54.24C20.5443 54.48 20.8483 54.808 21.0563 55.224C21.2643 55.632 21.3683 56.092 21.3683 56.604C21.3683 56.74 21.3643 56.864 21.3563 56.976C21.3483 57.088 21.3363 57.188 21.3203 57.276H16.7963C16.8443 57.908 17.0403 58.4 17.3843 58.752C17.7283 59.104 18.1843 59.28 18.7523 59.28C19.1923 59.28 19.5483 59.196 19.8203 59.028C20.1003 58.86 20.3243 58.632 20.4923 58.344L21.2483 58.788C21.0243 59.196 20.7003 59.52 20.2763 59.76C19.8603 60 19.3603 60.12 18.7763 60.12ZM18.6923 54.72C18.1883 54.72 17.7723 54.872 17.4443 55.176C17.1243 55.472 16.9203 55.888 16.8323 56.424H20.4083C20.3843 55.88 20.2163 55.46 19.9043 55.164C19.5923 54.868 19.1883 54.72 18.6923 54.72ZM25.7021 60.12C25.1341 60.12 24.6261 59.996 24.1781 59.748C23.7381 59.5 23.3941 59.144 23.1461 58.68C22.8981 58.208 22.7741 57.648 22.7741 57C22.7741 56.352 22.8981 55.796 23.1461 55.332C23.3941 54.86 23.7341 54.5 24.1661 54.252C24.5981 54.004 25.0901 53.88 25.6421 53.88C26.2021 53.88 26.6781 54 27.0701 54.24C27.4701 54.48 27.7741 54.808 27.9821 55.224C28.1901 55.632 28.2941 56.092 28.2941 56.604C28.2941 56.74 28.2901 56.864 28.2821 56.976C28.2741 57.088 28.2621 57.188 28.2461 57.276H23.7221C23.7701 57.908 23.9661 58.4 24.3101 58.752C24.6541 59.104 25.1101 59.28 25.6781 59.28C26.1181 59.28 26.4741 59.196 26.7461 59.028C27.0261 58.86 27.2501 58.632 27.4181 58.344L28.1741 58.788C27.9501 59.196 27.6261 59.52 27.2021 59.76C26.7861 60 26.2861 60.12 25.7021 60.12ZM25.6181 54.72C25.1141 54.72 24.6981 54.872 24.3701 55.176C24.0501 55.472 23.8461 55.888 23.7581 56.424H27.3341C27.3101 55.88 27.1421 55.46 26.8301 55.164C26.5181 54.868 26.1141 54.72 25.6181 54.72ZM32.4599 60.12C31.9639 60.12 31.5079 59.996 31.0919 59.748C30.6759 59.5 30.3439 59.144 30.0959 58.68C29.8479 58.208 29.7239 57.648 29.7239 57C29.7239 56.336 29.8559 55.772 30.1199 55.308C30.3839 54.844 30.7319 54.492 31.1639 54.252C31.5959 54.004 32.0599 53.88 32.5559 53.88C32.9879 53.88 33.3719 53.98 33.7079 54.18C34.0439 54.372 34.2919 54.636 34.4519 54.972V51.24H35.4119V60H34.5719L34.5119 58.872C34.3439 59.28 34.0719 59.592 33.6959 59.808C33.3199 60.016 32.9079 60.12 32.4599 60.12ZM32.5559 59.28C33.1239 59.28 33.5799 59.068 33.9239 58.644C34.2759 58.22 34.4519 57.644 34.4519 56.916C34.4519 56.228 34.2799 55.692 33.9359 55.308C33.5919 54.916 33.1479 54.72 32.6039 54.72C31.9959 54.72 31.5239 54.928 31.1879 55.344C30.8519 55.76 30.6839 56.312 30.6839 57C30.6839 57.688 30.8479 58.24 31.1759 58.656C31.5039 59.072 31.9639 59.28 32.5559 59.28Z"
        fill="white" />
    <defs>
        <clipPath id="clip0_20_2164">
            <rect width="24" height="24" fill="white" />
        </clipPath>
    </defs>
</svg>