<svg width="32" height="64" viewBox="0 0 32 64" fill="none" xmlns="http://www.w3.org/2000/svg">
    <g clip-path="url(#clip0_20_2162)">
        <path
            d="M12 2C8.13 2 5 5.13 5 9C5 13.17 9.42 18.92 11.24 21.11C11.64 21.59 12.37 21.59 12.77 21.11C14.58 18.92 19 13.17 19 9C19 5.13 15.87 2 12 2ZM12 11.5C10.62 11.5 9.5 10.38 9.5 9C9.5 7.62 10.62 6.5 12 6.5C13.38 6.5 14.5 7.62 14.5 9C14.5 10.38 13.38 11.5 12 11.5Z"
            fill="white" />
    </g>
    <path
        d="M0.56 30.44H8.928V32.12C7.60533 33.4427 6.67733 34.8347 6.144 36.296C5.61067 37.7467 5.344 39.3147 5.344 41H3.152C3.152 39.368 3.44 37.8213 4.016 36.36C4.592 34.8987 5.49333 33.528 6.72 32.248H0.56V30.44ZM9.92788 38.552C10.3545 38.552 10.6905 38.6693 10.9359 38.904C11.1919 39.1387 11.3199 39.4533 11.3199 39.848C11.3199 40.2533 11.1919 40.5733 10.9359 40.808C10.6905 41.032 10.3545 41.144 9.92788 41.144C9.49054 41.144 9.14921 41.032 8.90388 40.808C8.65854 40.5733 8.53588 40.2533 8.53588 39.848C8.53588 39.4533 8.65854 39.1387 8.90388 38.904C9.14921 38.6693 9.49054 38.552 9.92788 38.552ZM16.7479 41.16C15.8199 41.16 15.0359 40.968 14.3959 40.584C13.7665 40.2 13.2492 39.6133 12.8439 38.824L14.8279 37.832C14.9665 38.3013 15.1852 38.68 15.4839 38.968C15.7825 39.256 16.2199 39.4 16.7959 39.4C17.3825 39.4 17.8412 39.2453 18.1719 38.936C18.5132 38.6267 18.6839 38.184 18.6839 37.608C18.6839 37.032 18.5239 36.5947 18.2039 36.296C17.8945 35.9973 17.4412 35.848 16.8439 35.848C15.9692 35.848 15.3239 36.104 14.9079 36.616L13.1799 36.296L13.8359 30.44H20.2199V32.216H15.4999L15.1799 34.792L15.1319 35H15.1639C15.3879 34.7547 15.6919 34.5627 16.0759 34.424C16.4705 34.2747 16.9185 34.2 17.4199 34.2C18.1025 34.2 18.6892 34.3387 19.1799 34.616C19.6812 34.8933 20.0652 35.2827 20.3319 35.784C20.5985 36.2747 20.7319 36.84 20.7319 37.48C20.7319 38.2907 20.5505 38.9733 20.1879 39.528C19.8359 40.072 19.3559 40.4827 18.7479 40.76C18.1505 41.0267 17.4839 41.16 16.7479 41.16ZM26.5724 41.16C25.2177 41.16 24.1724 40.7013 23.4364 39.784C22.711 38.856 22.3484 37.5013 22.3484 35.72C22.3484 33.9387 22.711 32.5893 23.4364 31.672C24.1724 30.744 25.2177 30.28 26.5724 30.28C27.927 30.28 28.967 30.744 29.6924 31.672C30.4284 32.5893 30.7964 33.9387 30.7964 35.72C30.7964 37.5013 30.4284 38.856 29.6924 39.784C28.967 40.7013 27.927 41.16 26.5724 41.16ZM26.5724 39.384C27.255 39.384 27.7617 39.0907 28.0924 38.504C28.423 37.9067 28.5884 36.9787 28.5884 35.72C28.5884 34.4613 28.423 33.5387 28.0924 32.952C27.7617 32.3547 27.255 32.056 26.5724 32.056C25.8897 32.056 25.383 32.3547 25.0524 32.952C24.7217 33.5387 24.5564 34.4613 24.5564 35.72C24.5564 36.9787 24.7217 37.9067 25.0524 38.504C25.383 39.0907 25.8897 39.384 26.5724 39.384Z"
        fill="white" />
    <path
        d="M2.256 52.08V56.16L6.24 52.08H7.5L4.344 55.308L7.536 60H6.384L3.672 56.016L2.256 57.456V60H1.296V52.08H2.256ZM8.991 60V54H9.831L9.891 54.936C10.107 54.568 10.387 54.3 10.731 54.132C11.083 53.964 11.443 53.88 11.811 53.88C12.235 53.88 12.635 53.976 13.011 54.168C13.387 54.36 13.675 54.656 13.875 55.056C14.003 54.784 14.183 54.564 14.415 54.396C14.647 54.22 14.899 54.092 15.171 54.012C15.451 53.924 15.715 53.88 15.963 53.88C16.347 53.88 16.711 53.96 17.055 54.12C17.407 54.28 17.695 54.528 17.919 54.864C18.143 55.2 18.255 55.632 18.255 56.16V60H17.295V56.256C17.295 55.712 17.159 55.32 16.887 55.08C16.615 54.84 16.279 54.72 15.879 54.72C15.567 54.72 15.275 54.796 15.003 54.948C14.731 55.1 14.511 55.324 14.343 55.62C14.183 55.916 14.103 56.28 14.103 56.712V60H13.143V56.256C13.143 55.712 13.007 55.32 12.735 55.08C12.463 54.84 12.127 54.72 11.727 54.72C11.463 54.72 11.191 54.792 10.911 54.936C10.639 55.072 10.411 55.292 10.227 55.596C10.043 55.9 9.951 56.3 9.951 56.796V60H8.991Z"
        fill="white" />
    <defs>
        <clipPath id="clip0_20_2162">
            <rect width="24" height="24" fill="white" />
        </clipPath>
    </defs>
</svg>